<svg xmlns="http://www.w3.org/2000/svg" style="display:none">

    <!-- FACEBOOK -->
    <symbol id="icon-facebook" viewBox="0 0 8 16">
        <path d="M5.17676 15.3585V8.36238H7.53461L7.88805 5.62398H5.17676V3.88004C5.17676 3.08893 5.39657 2.54958 6.53047 2.54958H7.96842V0.107483C7.71763 0.073592 6.8597 0 5.86136 0C3.77658 0 2.34928 1.2714 2.34928 3.60892V5.62398H0.000144958V8.36238H2.34928V15.3585H5.1758H5.17676Z" fill="currentColor"/>
    </symbol>

    <!-- INSTAGRAM -->
    <symbol id="icon-instagram" viewBox="0 0 14 14">
        <path d="M9.34196 0H3.96395C1.77818 0 0 1.77818 0 3.96395V9.34196C0 11.5277 1.77818 13.3059 3.96395 13.3059H9.34196C11.5277 13.3059 13.3059 11.5277 13.3059 9.34196V3.96395C13.3057 1.77818 11.5275 0 9.34196 0ZM11.9672 9.34196C11.9672 10.7917 10.7917 11.9672 9.34196 11.9672H3.96395C2.51418 11.9672 1.3387 10.7917 1.3387 9.34196V3.96395C1.3387 2.51393 2.51418 1.3387 3.96395 1.3387H9.34196C10.7917 1.3387 11.9672 2.51418 11.9672 3.96395V9.34196Z" fill="currentColor"/>
        <path d="M6.6519 3.21094C4.75418 3.21094 3.21047 4.75465 3.21047 6.65233C3.21047 8.55008 4.75418 10.0938 6.6519 10.0938C8.5496 10.0938 10.0933 8.55008 10.0933 6.65233C10.0933 4.75465 8.54934 3.21094 6.6519 3.21094ZM6.6519 8.75509C5.49042 8.75509 4.54917 7.81356 4.54917 6.65233C4.54917 5.49116 5.49068 4.54965 6.6519 4.54965C7.81333 4.54965 8.75461 5.49116 8.75461 6.65233C8.75461 7.81356 7.81313 8.75509 6.6519 8.75509Z" fill="currentColor"/>
        <path d="M10.1017 4.06034C10.5571 4.06034 10.9264 3.69114 10.9264 3.23572C10.9264 2.78029 10.5571 2.4111 10.1017 2.4111C9.64632 2.4111 9.27713 2.78029 9.27713 3.23572C9.27713 3.69114 9.64632 4.06034 10.1017 4.06034Z" fill="currentColor"/>
    </symbol>

    <!-- YOUTUBE -->
    <symbol id="icon-youtube" viewBox="0 0 16 11">
        <path d="M14.7611 1.65845C14.5879 1.00546 14.0765 0.491017 13.4286 0.316818C12.253 7.28636e-08 7.53843 0 7.53843 0C7.53843 0 2.82385 7.28636e-08 1.64827 0.316818C0.999351 0.491017 0.488976 1.00546 0.314777 1.65845C-3.47316e-06 2.84117 0 5.31052 0 5.31052C0 5.31052 -3.47316e-06 7.77986 0.314777 8.96258C0.487957 9.61557 0.999351 10.13 1.64827 10.3042C2.82385 10.621 7.53843 10.621 7.53843 10.621C7.53843 10.621 12.253 10.621 13.4286 10.3042C14.0775 10.13 14.5879 9.61557 14.7611 8.96258C15.0758 7.77986 15.0758 5.31052 15.0758 5.31052C15.0758 5.31052 15.0758 2.84117 14.7611 1.65845Z" fill="currentColor"/>
        <path d="M5.99924 7.55277L9.93858 5.3106L5.99924 3.06944V7.55277Z" fill="black"/>
    </symbol>

    <!-- WHATSAPP -->
    <symbol id="icon-whatsapp" viewBox="0 0 18 18">
        <path d="M9.06925 17.3363C7.58796 17.3443 6.12887 16.9761 4.82878 16.2662L-0.000769615 17.8174L1.556 13.1626C0.75089 11.8787 0.321052 10.3264 0.321052 8.66827C0.322166 3.85208 4.23859 0.000244141 9.06925 0.000244141C13.8988 0.000244141 17.8163 3.85319 17.8163 8.66827C17.8163 13.4833 13.8988 17.3363 9.06925 17.3363ZM9.06925 1.39109C5.0437 1.39109 1.71635 4.65496 1.71635 8.66827C1.71635 10.2729 2.25309 11.7183 3.11166 12.9488L2.19853 15.6771L5.0437 14.7673C6.22408 15.5167 7.61939 15.9978 9.06925 15.9978C13.1471 15.9978 16.421 12.735 16.421 8.72172C16.421 4.70842 13.1471 1.39109 9.06925 1.39109ZM13.5235 10.6482C13.469 10.5402 13.3086 10.4867 13.0937 10.3809C12.8788 10.2729 11.8053 9.73841 11.6449 9.68496C11.43 9.63151 11.2686 9.63151 11.1616 9.84531C11.0013 10.0591 10.6249 10.5402 10.4646 10.7016C10.3565 10.862 10.1962 10.862 9.98127 10.7551C9.76635 10.6482 9.06814 10.4333 8.26414 9.68496C7.61939 9.09588 7.19066 8.45446 7.08376 8.23954C6.97574 8.02574 7.08376 7.91884 7.19066 7.81193C7.29756 7.70503 7.40558 7.54468 7.51248 7.43777C7.61485 7.33298 7.68882 7.20382 7.7274 7.0625C7.78085 6.90215 7.78085 6.79524 7.7274 6.68834C7.67395 6.58144 7.24411 5.5113 7.08265 5.13714C6.92229 4.70842 6.70737 4.76187 6.60047 4.76187H6.17063C6.01028 4.76187 5.79536 4.81532 5.58044 5.02912C5.36552 5.19059 4.82878 5.7251 4.82878 6.74179C4.82878 7.81193 5.58044 8.77517 5.68734 8.93552C5.79536 9.09588 7.19066 11.2896 9.33762 12.1459C11.5369 13.0023 11.5369 12.7339 11.9133 12.6805C12.2886 12.627 13.2006 12.1459 13.3621 11.6649C13.577 11.1827 13.577 10.7551 13.5235 10.6482Z" fill="currentColor"/>
    </symbol>

    <!-- TELEGRAM -->
    <symbol id="icon-telegram" viewBox="0 0 17 15">
        <path d="M8.95279 11.0322C8.3225 11.6636 7.65436 12.2572 7.02297 12.8886C6.80026 13.1113 6.54079 13.2226 6.24347 13.2226C6.02076 13.2226 5.9094 13.1113 5.83479 12.9253C5.35262 11.4409 4.87044 9.91867 4.38715 8.43429C4.3504 8.28618 4.27579 8.21157 4.12769 8.17483C2.98747 7.80911 1.84902 7.43792 0.712372 7.06126C0.52752 6.98665 0.378301 6.9499 0.193449 6.83854C-0.0292651 6.68932 -0.0671265 6.42986 0.11884 6.2439C0.304806 6.05904 0.52752 5.90982 0.786981 5.83633C2.19787 5.27954 3.5709 4.75951 4.9818 4.20272L15.6721 0.0825164C16.3402 -0.176945 16.8591 0.193873 16.7856 0.936624C16.7478 1.4188 16.6364 1.86423 16.5251 2.30965C15.7456 5.94769 14.9661 9.58461 14.2244 13.2226C14.0385 14.0767 13.4449 14.2995 12.7389 13.7794C11.5519 12.8886 10.3637 12.0345 9.1755 11.1436C9.06414 11.1069 9.02739 11.0701 8.95279 11.0322ZM6.28022 12.1458H6.31808C6.31808 12.1091 6.31808 12.0723 6.35483 12.0345C6.42944 11.2182 6.50293 10.402 6.57754 9.54786C6.57754 9.36189 6.65215 9.25053 6.80026 9.10243C7.91383 8.13696 8.99065 7.13475 10.0664 6.13254C11.2913 5.05683 12.4795 3.94326 13.7044 2.86644C13.7411 2.82969 13.779 2.68047 13.8525 2.60698C13.7411 2.60698 13.6298 2.53237 13.5184 2.56912C13.3703 2.60698 13.2222 2.68047 13.1109 2.75508C10.4383 4.46218 7.76572 6.13254 5.09315 7.80289C4.94394 7.91425 4.90719 7.98886 4.9818 8.13696C5.16665 8.69375 5.35262 9.28839 5.53858 9.84518C5.7613 10.6247 6.02076 11.3663 6.28022 12.1458Z" fill="currentColor"/>
    </symbol>

</svg>
